<?xml version="1.0" encoding="UTF-8"?>
<COLLADA xmlns="http://www.collada.org/2005/11/COLLADASchema" version="1.4.1">
<!--
# File generated by ImageToStl.com - Free Image and 3D model conversion tools
-->
  <asset>
    <contributor>
      <author>ImageToStl.com</author>
      <authoring_tool>ImageToStl.com</authoring_tool>
    </contributor>
    <created>2026-03-25T08:45:33</created>
    <modified>2026-03-25T08:45:33</modified>
    <up_axis>Z_UP</up_axis>
  </asset>
  <library_effects>
    <effect id="effect_0">
        <profile_COMMON>
          <technique sid="common">
            <phong>
              <diffuse>
                <color>0.85 0.85 0.85 1</color>
              </diffuse>
              <specular>
                <color>0.05 0.05 0.05 1</color>
              </specular>
              <shininess>
                <float>64</float>
              </shininess>
            </phong>
          </technique>
        </profile_COMMON>
    </effect>
  </library_effects>
  <library_materials>
    <material id="mat_0">
      <instance_effect url="#effect_0"/>
    </material>
  </library_materials>
  <library_geometries>
    <geometry id="geometry_4e3d0c96_cf70_4530_b507_6e9d03f79ebc">
      <mesh>
        <source id="pos_0">
          <float_array id="pos_0-array" count="528">51.72499847 44.56255341 2.93205118 51.72499847 43.56255722 1.1999979 52.52499771 44.37691498 3.03922963 52.52499771 43.37691498 1.30717826 53.11064148 43.86973572 3.33205056 53.11064148 42.86973572 1.60000098 53.32500076 43.17691422 3.73204994 53.32500076 42.17691803 2.00000024 53.11064148 42.48409653 4.13205099 53.11064148 41.48409271 2.39999962 52.52499771 41.97691727 4.42487192 52.52499771 40.97691345 2.69282055 51.72499847 41.79127502 4.53205013 51.72499847 40.79127502 2.799999 6.72499847 44.56255341 2.93205118 6.72499847 43.56255722 1.1999979 7.52499866 44.37691498 3.03922963 7.52499866 43.37691498 1.30717826 8.11064053 43.86973572 3.33205056 8.11064053 42.86973572 1.60000098 8.32499981 43.17691422 3.73204994 8.32499981 42.17691803 2.00000024 8.11064053 42.48409653 4.13205099 8.11064053 41.48409271 2.39999962 7.52499866 41.97691727 4.42487192 7.52499866 40.97691345 2.69282055 6.72499847 41.79127502 4.53205013 6.72499847 40.79127502 2.799999 0 46.64101791 1.73205137 58.44999695 46.64101791 1.73205137 0 45.6410141 0 58.44999695 45.6410141 0 2.99999857 39.71281052 5.73204994 2.99999857 38.71281433 4.00000048 55.45000076 39.71281052 5.73204994 55.45000076 38.71281433 4.00000048 5.33935785 42.48409653 4.13205099 2.99999857 46.59768677 1.75706673 58.44999695 46.59768677 1.75706673 55.45000076 46.59768677 1.75706673 5.12499905 43.17691422 3.73204994 5.33935785 43.86973572 3.33205056 5.92499971 44.37691498 3.03922963 50.33935928 43.86973572 3.33205056 50.92499924 44.37691498 3.03922963 5.92499971 41.97691727 4.42487192 0 46.59768677 1.75706673 50.92499924 41.97691727 4.42487192 50.33935928 42.48409653 4.13205099 50.125 43.17691422 3.73204994 58.44999695 47.04253387 2.65249801 55.45000076 47.04253387 2.65249801 58.44999695 11 46 55.45000076 11 46 0 11 46 2.99999857 11 46 0 47.04253387 2.65249801 2.99999857 47.04253387 2.65249801 2.99999857 11 20 58.44999695 11 20 55.45000076 11 20 0 11 20 5.92499971 43.37691498 1.30717826 5.33935785 42.86973572 1.60000098 5.12499905 42.17691803 2.00000024 5.33935785 41.48409271 2.39999962 5.92499971 40.97691345 2.69282055 50.92499924 43.37691498 1.30717826 50.33935928 42.86973572 1.60000098 50.92499924 40.97691345 2.69282055 50.33935928 41.48409271 2.39999962 50.125 42.17691803 2.00000024 0 0 23 0 0 20 58.44999695 0 23 58.44999695 0 20 0 8 23 58.44999695 8 23 35.875 11 28.39999962 35.875 8 28.39999962 36.67499924 11 28.6143589 36.67499924 8 28.6143589 37.26063919 11 29.19999886 37.26063919 8 29.19999886 37.47499847 11 30 37.47499847 8 30 37.26063919 11 30.79999924 37.26063919 8 30.79999924 36.67499924 11 31.3856411 36.67499924 8 31.3856411 35.875 11 31.60000038 35.875 8 31.60000038 42.45000076 11 39.40000153 42.45000076 8 39.40000153 43.25 11 39.61436081 43.25 8 39.61436081 43.83563995 11 40.20000076 43.83563995 8 40.20000076 44.04999924 11 41 44.04999924 8 41 43.83563995 11 41.79999924 43.83563995 8 41.79999924 43.25 11 42.38563919 43.25 8 42.38563919 42.45000076 11 42.59999847 42.45000076 8 42.59999847 15.99999905 11 39.40000153 15.99999905 8 39.40000153 16.79999924 11 39.61436081 16.79999924 8 39.61436081 17.3856411 11 40.20000076 17.3856411 8 40.20000076 17.59999847 11 41 17.59999847 8 41 17.3856411 11 41.79999924 17.3856411 8 41.79999924 16.79999924 11 42.38563919 16.79999924 8 42.38563919 15.99999905 11 42.59999847 15.99999905 8 42.59999847 22.57499886 11 28.39999962 22.57499886 8 28.39999962 23.375 11 28.6143589 23.375 8 28.6143589 23.96063995 11 29.19999886 23.96063995 8 29.19999886 24.17499924 11 30 24.17499924 8 30 23.96063995 11 30.79999924 23.96063995 8 30.79999924 23.375 11 31.3856411 23.375 8 31.3856411 22.57499886 11 31.60000038 22.57499886 8 31.60000038 58.44999695 8 46 0 8 46 21.18935966 8 30.79999924 21.77499962 8 31.3856411 35.07500076 8 28.6143589 34.48935699 8 29.19999886 34.27499771 8 30 34.48935699 8 30.79999924 35.07500076 8 31.3856411 41.64999771 8 39.61436081 41.06435776 8 40.20000076 40.84999847 8 41 21.77499962 8 28.6143589 21.18935966 8 29.19999886 14.39999866 8 41 14.6143589 8 40.20000076 15.19999886 8 39.61436081 20.97499847 8 30 14.6143589 8 41.79999924 15.19999886 8 42.38563919 41.06435776 8 41.79999924 41.64999771 8 42.38563919 34.48935699 11 30.79999924 41.06435776 11 41.79999924 35.07500076 11 31.3856411 14.6143589 11 41.79999924 14.39999866 11 41 14.6143589 11 40.20000076 21.18935966 11 30.79999924 15.19999886 11 39.61436081 21.77499962 11 31.3856411 20.97499847 11 30 21.18935966 11 29.19999886 21.77499962 11 28.6143589 41.64999771 11 42.38563919 35.07500076 11 28.6143589 15.19999886 11 42.38563919 34.27499771 11 30 34.48935699 11 29.19999886 40.84999847 11 41 41.06435776 11 40.20000076 41.64999771 11 39.61436081</float_array>
          <technique_common>
            <accessor source="#pos_0-array" count="528" stride="3">
              <param name="X" type="float"/>
              <param name="Y" type="float"/>
              <param name="Z" type="float"/>
            </accessor>
          </technique_common>
        </source>
        <source id="norm_0">
          <float_array id="norm_0-array" count="390">-0.25882 -0.83652 0.48296 -0.25882 -0.83652 0.48296 -0.70711 -0.61237 0.35355 -0.70711 -0.61237 0.35355 -0.96593 -0.22414 0.12941 -0.96593 -0.22414 0.12941 -0.96593 0.22414 -0.12941 -0.96593 0.22414 -0.12941 -0.70711 0.61237 -0.35355 -0.25882 0.83652 -0.48296 -0.25882 0.83652 -0.48296 -0.25882 -0.83652 0.48296 -0.25882 -0.83652 0.48296 -0.25882 0.83652 -0.48296 -0.25882 0.83652 -0.48296 0 0.86603 -0.5 0 -0.86603 0.5 -0 0.5 0.86603 0 0.49999 0.86603 1E-05 0.5 0.86602 -0 0.5 0.86603 0 0.5 0.86603 0 0.5 0.86603 0 0.5 0.86603 -0 0.5 0.86603 0 0.5 0.86603 -0 0.49999 0.86603 0 0.5 0.86603 0 0.5 0.86603 -0 0.5 0.86603 0 0.5 0.86603 -0 0.5 0.86603 0 0.5 0.86603 -0 0.5 0.86603 0 0.5 0.86602 0 0.5 0.86603 -0 0.5 0.86603 0 0.50001 0.86602 -0 0.5 0.86603 -0 0.5 0.86602 -0 0.5 0.86602 -0 0.5 0.86603 -0 0.5 0.86603 0 0.5 0.86603 -0 0.5 0.86603 0 0.76892 0.63934 1 0 -0 -0 -0.5 -0.86603 -0 -0.5 -0.86603 -0 -0.5 -0.86603 0 -0.5 -0.86603 0 -0.5 -0.86603 -0 -0.5 -0.86603 0 -0.5 -0.86603 -0 -0.5 -0.86603 0 -0.5 -0.86603 0 -0.5 -0.86603 0 -0.5 -0.86603 -0 -0.5 -0.86603 -0 -0.5 -0.86602 -0 -0.5 -0.86603 0 -0.5 -0.86603 -0 -0.5 -0.86603 0 -0.5 -0.86603 0 -0.5 -0.86603 -0 -0.5 -0.86603 0 -0.5 -0.86603 0 -0.5 -0.86602 -0 -0.5 -0.86603 0 -0.5 -0.86603 0 -0.5 -0.86603 0 -0.5 -0.86602 -0 -0.5 -0.86603 -0 -0.5 -0.86603 -0 -0.5 -0.86602 -0 -0.5 -0.86603 -0 -0.5 -0.86603 -1 0 0 0 -1 0 0 0 1 -0.25882 0 0.96593 -0.70711 0 0.70711 -0.96593 0 0.25882 -0.96593 -0 -0.25882 -0.70711 -0 -0.70711 -0.25882 -0 -0.96593 -0.25882 0 0.96593 -0.70711 0 0.70711 -0.96593 0 0.25882 -0.96593 -0 -0.25882 -0.70711 -0 -0.70711 -0.25882 -0 -0.96593 -0.25882 0 0.96593 -0.96593 0 0.25882 -0.96593 -0 -0.25882 -0.25882 -0 -0.96593 -0 -0 -1 -0 1 -0 0 0.89557 -0.44491 0.25882 0 -0.96593 0.70711 0 -0.70711 0.96593 0 -0.25882 0.96593 0 0.25882 0.70711 0 0.70711 0.25882 0 0.96593 0.25882 0 -0.96593 0.70711 0 -0.70711 0.96593 0 -0.25882 0.96593 0 0.25882 0.70711 0 0.70711 0.25882 0 0.96593 0.25882 0 -0.96593 0.96593 0 -0.25882 0.96593 0 0.25882 0.25882 0 0.96593 0.25882 0.83652 -0.48296 0.25882 0.83652 -0.48296 0.70711 0.61237 -0.35355 0.96593 0.22414 -0.12941 0.96593 0.22414 -0.12941 0.96593 -0.22414 0.12941 0.96593 -0.22414 0.12941 0.70711 -0.61237 0.35355 0.70711 -0.61237 0.35355 0.25882 -0.83652 0.48296 0.25882 -0.83652 0.48296 0.25882 0.83652 -0.48296 0.25882 0.83652 -0.48296 0.25882 -0.83652 0.48296 0.25882 -0.83652 0.48296</float_array>
          <technique_common>
            <accessor source="#norm_0-array" count="390" stride="3">
              <param name="X" type="float"/>
              <param name="Y" type="float"/>
              <param name="Z" type="float"/>
            </accessor>
          </technique_common>
        </source>
        <vertices id="vert_0">
          <input semantic="POSITION" source="#pos_0"/>
        </vertices>
        <triangles count="376" material="mat_0">
          <input semantic="VERTEX" source="#vert_0" offset="0"/>
          <input semantic="NORMAL" source="#norm_0" offset="1"/>
          <p>0 0 1 0 2 0 2 1 1 1 3 1 2 2 3 2 4 2 4 3 3 3 5 3 4 4 5 4 6 4 6 5 5 5 7 5 6 6 7 6 8 6 8 7 7 7 9 7 8 8 9 8 10 8 10 8 9 8 11 8 10 9 11 9 12 9 12 10 11 10 13 10 14 11 15 11 16 11 16 12 15 12 17 12 16 2 17 2 18 2 18 3 17 3 19 3 18 4 19 4 20 4 20 5 19 5 21 5 20 6 21 6 22 6 22 7 21 7 23 7 22 8 23 8 24 8 24 8 23 8 25 8 24 13 25 13 26 13 26 14 25 14 27 14 28 15 29 15 30 15 30 15 29 15 31 15 32 16 33 16 34 16 34 16 33 16 35 16 36 17 37 17 32 17 38 18 29 18 39 18 39 18 29 18 28 18 36 19 40 19 37 19 37 20 40 20 41 20 37 21 41 21 42 21 0 22 2 22 39 22 43 23 44 23 37 23 37 24 44 24 0 24 22 25 24 25 34 25 34 26 24 26 26 26 34 27 26 27 32 27 32 28 26 28 45 28 32 29 45 29 36 29 0 30 39 30 37 30 37 18 39 18 28 18 37 18 28 18 46 18 2 31 4 31 39 31 39 32 4 32 6 32 39 33 6 33 34 33 34 34 6 34 8 34 34 35 8 35 10 35 10 36 12 36 34 36 34 37 12 37 47 37 34 38 47 38 22 38 22 39 47 39 48 39 22 40 48 40 20 40 20 40 48 40 49 40 20 41 49 41 18 41 18 41 49 41 43 41 18 39 43 39 16 39 16 42 43 42 37 42 16 43 37 43 14 43 14 44 37 44 42 44 50 45 51 45 52 45 52 45 51 45 53 45 54 45 55 45 56 45 56 45 55 45 57 45 37 46 57 46 32 46 32 46 57 46 55 46 32 46 55 46 33 46 33 46 55 46 58 46 59 47 60 47 31 47 31 48 60 48 35 48 58 49 61 49 33 49 33 50 61 50 30 50 13 51 11 51 35 51 35 52 11 52 9 52 35 53 9 53 31 53 31 54 9 54 7 54 31 55 7 55 5 55 62 56 30 56 15 56 15 57 30 57 31 57 15 58 31 58 17 58 62 59 63 59 30 59 30 60 63 60 64 60 30 61 64 61 33 61 33 62 64 62 65 62 25 63 35 63 27 63 27 64 35 64 33 64 27 65 33 65 66 65 66 66 33 66 65 66 5 67 3 67 31 67 31 68 3 68 1 68 31 69 1 69 17 69 17 70 1 70 67 70 17 71 67 71 68 71 13 72 35 72 69 72 69 73 35 73 25 73 69 74 25 74 70 74 70 74 25 74 23 74 70 75 23 75 71 75 71 75 23 75 21 75 71 76 21 76 68 76 68 76 21 76 19 76 68 71 19 71 17 71 35 77 60 77 34 77 34 77 60 77 53 77 34 77 53 77 39 77 39 77 53 77 51 77 72 78 73 78 74 78 74 78 73 78 75 78 72 79 74 79 76 79 76 79 74 79 77 79 78 80 79 80 80 80 80 80 79 80 81 80 80 81 81 81 82 81 82 81 81 81 83 81 82 82 83 82 84 82 84 82 83 82 85 82 84 83 85 83 86 83 86 83 85 83 87 83 86 84 87 84 88 84 88 84 87 84 89 84 88 85 89 85 90 85 90 85 89 85 91 85 92 86 93 86 94 86 94 86 93 86 95 86 94 87 95 87 96 87 96 87 95 87 97 87 96 88 97 88 98 88 98 88 97 88 99 88 98 89 99 89 100 89 100 89 99 89 101 89 100 90 101 90 102 90 102 90 101 90 103 90 102 91 103 91 104 91 104 91 103 91 105 91 106 92 107 92 108 92 108 92 107 92 109 92 108 87 109 87 110 87 110 87 109 87 111 87 110 93 111 93 112 93 112 93 111 93 113 93 112 94 113 94 114 94 114 94 113 94 115 94 114 90 115 90 116 90 116 90 115 90 117 90 116 95 117 95 118 95 118 95 117 95 119 95 120 80 121 80 122 80 122 80 121 80 123 80 122 81 123 81 124 81 124 81 123 81 125 81 124 82 125 82 126 82 126 82 125 82 127 82 126 83 127 83 128 83 128 83 127 83 129 83 128 84 129 84 130 84 130 84 129 84 131 84 130 85 131 85 132 85 132 85 131 85 133 85 59 96 75 96 60 96 60 96 75 96 73 96 60 96 73 96 58 96 58 96 73 96 61 96 74 46 75 46 77 46 77 46 75 46 59 46 59 46 31 46 38 46 38 46 31 46 29 46 38 46 50 46 59 46 59 46 50 46 52 46 59 46 52 46 77 46 77 46 52 46 134 46 134 79 52 79 53 79 134 79 53 79 135 79 135 79 53 79 55 79 135 79 55 79 54 79 73 77 72 77 61 77 61 77 72 77 76 77 28 77 30 77 46 77 46 77 30 77 61 77 76 77 135 77 61 77 61 77 135 77 54 77 61 77 54 77 46 77 46 77 54 77 56 77 113 78 136 78 115 78 115 78 136 78 137 78 115 78 137 78 133 78 125 78 77 78 79 78 79 78 138 78 125 78 125 78 138 78 139 78 125 78 139 78 127 78 127 78 139 78 140 78 127 78 140 78 129 78 129 78 140 78 141 78 129 78 141 78 131 78 133 78 131 78 115 78 115 78 131 78 141 78 115 78 141 78 117 78 117 78 141 78 142 78 77 78 95 78 93 78 87 78 93 78 89 78 89 78 93 78 143 78 89 78 143 78 91 78 91 78 143 78 144 78 91 78 144 78 145 78 87 78 85 78 93 78 93 78 85 78 83 78 93 78 83 78 77 78 77 78 83 78 81 78 77 78 81 78 79 78 125 78 123 78 77 78 77 78 123 78 121 78 77 78 121 78 76 78 76 78 121 78 146 78 76 78 146 78 147 78 135 78 105 78 134 78 134 78 105 78 103 78 148 78 135 78 149 78 149 78 135 78 76 78 149 78 76 78 150 78 150 78 76 78 147 78 150 78 147 78 107 78 107 78 147 78 151 78 107 78 151 78 109 78 109 78 151 78 136 78 109 78 136 78 111 78 111 78 136 78 113 78 103 78 101 78 134 78 134 78 101 78 99 78 134 78 99 78 77 78 77 78 99 78 97 78 77 78 97 78 95 78 148 78 152 78 135 78 135 78 152 78 153 78 135 78 153 78 119 78 142 78 91 78 117 78 117 78 91 78 145 78 117 78 145 78 119 78 119 78 145 78 154 78 119 78 154 78 135 78 135 78 154 78 155 78 135 78 155 78 105 78 112 97 114 97 132 97 156 97 157 97 158 97 158 97 157 97 90 97 159 97 160 97 55 97 55 97 160 97 161 97 162 97 163 97 106 97 162 97 106 97 164 97 164 97 106 97 108 97 164 97 108 97 132 97 132 97 108 97 110 97 132 97 110 97 112 97 161 97 163 97 55 97 55 97 163 97 162 97 55 97 162 97 58 97 58 97 162 97 165 97 58 97 165 97 166 97 166 97 167 97 58 97 58 97 167 97 120 97 58 97 120 97 60 97 60 97 120 97 122 97 60 97 122 97 124 97 168 97 128 97 130 97 80 97 60 97 78 97 78 97 60 97 124 97 78 97 124 97 169 97 114 97 116 97 53 97 53 97 116 97 118 97 53 97 118 97 55 97 55 97 118 97 170 97 55 97 170 97 159 97 168 97 157 97 128 97 128 97 157 97 156 97 128 97 156 97 126 97 126 97 156 97 171 97 126 97 171 97 124 97 124 97 171 97 172 97 124 97 172 97 169 97 92 97 94 97 60 97 60 97 94 97 96 97 60 97 96 97 53 97 53 97 96 97 98 97 53 97 98 97 100 97 130 97 132 97 168 97 168 97 132 97 114 97 168 97 114 97 104 97 104 97 114 97 53 97 104 97 53 97 102 97 102 97 53 97 100 97 157 97 173 97 90 97 90 97 173 97 174 97 90 97 174 97 88 97 88 97 174 97 175 97 88 97 175 97 86 97 86 97 175 97 92 97 86 97 92 97 84 97 84 97 92 97 60 97 84 97 60 97 82 97 82 97 60 97 80 97 57 98 37 98 56 98 56 98 37 98 46 98 50 98 38 98 51 98 51 98 38 98 39 98 132 99 133 99 164 99 164 99 133 99 137 99 164 100 137 100 162 100 162 100 137 100 136 100 162 101 136 101 165 101 165 101 136 101 151 101 165 102 151 102 166 102 166 102 151 102 147 102 166 103 147 103 167 103 167 103 147 103 146 103 167 104 146 104 120 104 120 104 146 104 121 104 118 105 119 105 170 105 170 105 119 105 153 105 170 106 153 106 159 106 159 106 153 106 152 106 159 107 152 107 160 107 160 107 152 107 148 107 160 108 148 108 161 108 161 108 148 108 149 108 161 109 149 109 163 109 163 109 149 109 150 109 163 110 150 110 106 110 106 110 150 110 107 110 104 111 105 111 168 111 168 111 105 111 155 111 168 106 155 106 157 106 157 106 155 106 154 106 157 112 154 112 173 112 173 112 154 112 145 112 173 113 145 113 174 113 174 113 145 113 144 113 174 109 144 109 175 109 175 109 144 109 143 109 175 114 143 114 92 114 92 114 143 114 93 114 90 99 91 99 158 99 158 99 91 99 142 99 158 100 142 100 156 100 156 100 142 100 141 100 156 101 141 101 171 101 171 101 141 101 140 101 171 102 140 102 172 102 172 102 140 102 139 102 172 103 139 103 169 103 169 103 139 103 138 103 169 104 138 104 78 104 78 104 138 104 79 104 26 115 27 115 45 115 45 116 27 116 66 116 45 117 66 117 36 117 36 117 66 117 65 117 36 118 65 118 40 118 40 119 65 119 64 119 40 120 64 120 41 120 41 121 64 121 63 121 41 122 63 122 42 122 42 123 63 123 62 123 42 124 62 124 14 124 14 125 62 125 15 125 12 126 13 126 47 126 47 127 13 127 69 127 47 117 69 117 48 117 48 117 69 117 70 117 48 118 70 118 49 118 49 119 70 119 71 119 49 120 71 120 43 120 43 121 71 121 68 121 43 122 68 122 44 122 44 123 68 123 67 123 44 128 67 128 0 128 0 129 67 129 1 129</p>
        </triangles>
      </mesh>
    </geometry>
  </library_geometries>
  <library_visual_scenes>
    <visual_scene id="DefaultScene">
      <node id="node_a13e121c_e0b3_4e44_9d29_4c277308c316" type="NODE">
        <matrix>1 0 0 0 0 1 0 0 0 0 1 0 0 0 0 1</matrix>
        <node id="node_7a7b37e5_378d_4557_9254_eb80a579b9d8" type="NODE">
          <matrix>1 0 0 0 0 1 0 0 0 0 1 0 0 0 0 1</matrix>
          <node id="node_7a7b37e5_378d_4557_9254_eb80a579b9d8_mesh0" type="NODE">
            <matrix>1 0 0 0 0 1 0 0 0 0 1 0 0 0 0 1</matrix>
            <instance_geometry url="#geometry_4e3d0c96_cf70_4530_b507_6e9d03f79ebc">
              <bind_material>
                <technique_common>
                  <instance_material symbol="mat_0" target="#mat_0"/>
                </technique_common>
              </bind_material>
            </instance_geometry>
          </node>
        </node>
      </node>
    </visual_scene>
  </library_visual_scenes>
  <scene>
    <instance_visual_scene url="#DefaultScene"/>
  </scene>
</COLLADA>
